<svg xmlns="http://www.w3.org/2000/svg" xmlns:xlink="http://www.w3.org/1999/xlink" version="1.1" x="0px" y="0px" viewBox="0 0 800.795 518.7574999999999" style="enable-background:new 0 0 800.795 415.006;" xml:space="preserve"><g><path d="M513.672,166.283h0.043l4.768,31.602h3.068v-4.144v-33.088c3.212,6.679,6.17,18.228,6.82,37.232h16.018   c-0.845-27.262-6.255-45.737-16.174-55.057c-5.619-5.28-11.109-6.181-13.92-6.245c-0.157-0.01-0.313-0.024-0.472-0.024h-0.151   V166.283z"/><rect x="480.339" y="136.56" width="28.333" height="29.724"/><path d="M475.297,166.283h0.042V136.56h-0.151c-0.311,0-0.615,0.023-0.916,0.059c-0.177-0.012-0.354-0.027-0.534-0.027   c-9.077,0-13.836,7.286-17.66,13.14c-5.378,8.232-10.019,15.339-25.243,12.766c-0.947-0.161-1.88-0.139-2.773,0.024l-15.65-31.005   l8.109-4.093l-12.391-24.55l-20.979,10.59l12.391,24.55l8.108-4.093l15.781,31.264c-0.915,1.066-1.567,2.38-1.818,3.866   c-0.737,4.356,2.196,8.485,6.553,9.223c0.688,0.116,1.359,0.214,2.024,0.302l5.623,11.141l4.763-2.404l-4.182-8.286   c0.124,0.001,0.254,0.008,0.377,0.008c16.962-0.001,25.384-9.775,30.691-17.524v32.23v4.144h3.069L475.297,166.283z    M406.921,109.083l7.662,15.176l-2.678,1.352l-7.661-15.176L406.921,109.083z M400.522,131.356l-7.662-15.176l2.679-1.351   l7.66,15.176L400.522,131.356z M398.552,113.309l2.679-1.353l7.66,15.177l-2.677,1.351L398.552,113.309z"/><path d="M494.506,130.861c12.426,0,22.5-10.073,22.5-22.5c0-2.81-0.519-5.497-1.46-7.976h-42.08c-0.941,2.48-1.46,5.167-1.46,7.976   C472.006,120.788,482.078,130.861,494.506,130.861z"/><circle cx="507.589" cy="172.825" r="2.875"/><circle cx="481.422" cy="172.825" r="2.875"/><path d="M114.933,306.428c-29.936,0-54.289,24.354-54.289,54.289s24.353,54.289,54.289,54.289s54.289-24.354,54.289-54.289   S144.869,306.428,114.933,306.428z M140.898,360.717c0,14.317-11.648,25.964-25.964,25.964s-25.964-11.648-25.964-25.964   s11.648-25.964,25.964-25.964S140.898,346.401,140.898,360.717z"/><path d="M315.172,355.209h298.043c2.808-35.226,32.263-62.944,68.211-62.944s65.404,27.717,68.211,62.944h38.793v-17.824h8.364   c2.2,0,4-1.8,4-4v-44.667c0-2.2-1.8-4-4-4h-8.364v-177.35V92.026V0H240.915v107.368h74.257V355.209z M526.625,225.646h-30.25   v-4.261h30.25V225.646z M565.5,225.646h-30.25v-4.261h30.25V225.646z M574,225.646v-4.261h179v4.261H574z M638.333,235.385v-4.261   H753v4.261H638.333z M751.936,100.385v20.196l-9.213-20.196h-13.19l22.34,48.97l0.063-0.029v48.559v6.167H344.592v-6.167v-52.106   l20.708-45.394h-13.19l-7.519,16.481v-16.481h-24.049l19.195-45h1.24l-11.38,37.049h437.847l-11.38-37.049h1.24l19.195,45H751.936z   "/><path d="M716,110.885h-91.5v87H716V110.885z M710,191.885h-79.5v-35.833h79.333v-6H630.5v-33.167H710V191.885z"/><rect x="636.333" y="140.385" width="30.667" height="5.333"/><rect x="636.333" y="131.718" width="30.667" height="5.333"/><rect x="636.333" y="123.052" width="30.667" height="5.333"/><rect x="636" y="165.052" width="12.25" height="22.333"/><rect x="652.063" y="165.052" width="12.25" height="22.333"/><rect x="668.125" y="165.052" width="12.25" height="22.333"/><path d="M678.383,145.718c2.973,0,5.383-2.249,5.383-6.92s-2.41-9.996-5.383-9.996S673,134.126,673,138.798   S675.41,145.718,678.383,145.718z"/><path d="M691.633,145.718c2.973,0,5.383-2.249,5.383-6.92s-2.41-9.996-5.383-9.996s-5.383,5.325-5.383,9.996   S688.66,145.718,691.633,145.718z"/><rect x="552" y="190.885" width="62.5" height="6.5"/><rect x="360" y="190.885" width="62.5" height="6.5"/><rect x="552" y="180.135" width="62.5" height="6.5"/><rect x="207.468" y="156.965" transform="matrix(0.7071 -0.7071 0.7071 0.7071 -64.0227 199.4295)" width="2.508" height="40.064"/><rect x="215.358" y="149.074" transform="matrix(0.7071 -0.7071 0.7071 0.7071 -56.1321 202.6979)" width="2.508" height="40.064"/><rect x="211.413" y="131.496" transform="matrix(0.7071 -0.7071 0.7071 0.7071 -60.0774 201.0637)" width="2.508" height="83.111"/><path d="M681.427,306.428c-29.936,0-54.289,24.354-54.289,54.289s24.353,54.289,54.289,54.289s54.289-24.354,54.289-54.289   S711.363,306.428,681.427,306.428z M707.392,360.717c0,14.317-11.648,25.964-25.964,25.964s-25.964-11.648-25.964-25.964   s11.647-25.964,25.964-25.964S707.392,346.401,707.392,360.717z"/><rect x="686.5" y="172.885" width="14.5" height="14.5"/><rect x="367" y="165.385" width="20.75" height="20.75"/><rect x="393.042" y="173.718" width="12.417" height="12.417"/><path d="M4,337.385h10.222v17.824h32.499c2.808-35.226,32.263-62.944,68.211-62.944c35.949,0,65.404,27.717,68.211,62.944h119.833   V119.17H169.221l-44.061,87.334L14.222,244.271v40.448H4c-2.2,0-4,1.8-4,4v44.667C0,335.585,1.8,337.385,4,337.385z M253,236.385   h-39v-8h39V236.385z M175.033,128.612h88.604v85.588L131.852,214.2L175.033,128.612z"/></g><text x="0" y="430.006" fill="#000000" font-size="5px" font-weight="bold" font-family="'Helvetica Neue', Helvetica, Arial-Unicode, Arial, Sans-serif">Created by Gan Khoon Lay</text><text x="0" y="435.006" fill="#000000" font-size="5px" font-weight="bold" font-family="'Helvetica Neue', Helvetica, Arial-Unicode, Arial, Sans-serif">from the Noun Project</text></svg>